#N canvas 238 279 415 179 10;
#X obj 31 159 outlet;
#X obj 28 18 inlet;
#X msg 28 48 note \$1;
#X obj 31 76 quant 0.05945 0.06673 0.07073 0.08407 0.08909 0.0944 0.11225
0.05945 0.11891 0.13349 0.14142 0.16818 0.17818 0.18876 0.22451 0.11891
0.23785 0.26698 0.28284 0.33636 0.35636 0.37756 0.44898 0.23785 0.47567
0.53393 0.56567 0.67273 0.71273 0.75509 0.89796 0.47567 0.95138;
#X connect 1 0 2 0;
#X connect 2 0 3 0;
#X connect 3 0 0 0;
