#N canvas 362 39 415 179 10;
#X obj 31 159 outlet;
#X obj 31 76 quant 0.0594545 0.0667273 0.0749091 0.0793818 0.0890909
0.1 0.112255 0.118909 0.133491 0.149818 0.158727 0.178182 0.2 0.224509
0.237855 0.266982 0.299673 0.317491 0.356364 0.4 0.448982 0.475673
0.533927 0.599309 0.634945 0.712727 0.8 0.897964 0.951382;
#X obj 28 18 inlet;
#X msg 28 48 note \$1;
#X connect 1 0 0 0;
#X connect 2 0 3 0;
#X connect 3 0 1 0;
