#N canvas 161 43 467 171 10;
#X obj 15 137 outlet;
#X obj 14 49 quant 0.0594545 0.0667273 0.0707273 0.0793818 0.0890909
0.0944 0.105964 0.118909 0.133491 0.141418 0.158727 0.178182 0.188764
0.211891 0.237855 0.266982 0.282836 0.317491 0.356364 0.377564 0.423782
0.475673 0.533927 0.565673 0.634945 0.712727 0.755091 0.847564 0.951382
;
#X obj 15 -19 inlet;
#X msg 15 11 note \$1;
#X connect 1 0 0 0;
#X connect 2 0 3 0;
#X connect 3 0 1 0;
