#N canvas 540 188 450 300 10;
#X floatatom 241 144 5 0 0 0 - - -, f 5;
#X obj 186 76 + 1;
#X msg 128 76 0;
#X obj 120 108 f;
#X obj 83 30 inlet;
#X obj 185 111 mod 8;
#X obj 236 222 outlet;
#X connect 0 0 6 0;
#X connect 1 0 3 1;
#X connect 1 0 5 0;
#X connect 2 0 3 1;
#X connect 3 0 1 0;
#X connect 4 0 3 0;
#X connect 5 0 0 0;
