#N canvas 142 106 1138 516 10;
#X obj 25 100 bng 15 250 50 0 empty empty empty 17 7 0 10 -262144 -1
-1;
#X obj 17 5 loadbang;
#X obj 26 71 metro;
#X msg 70 29 500;
#X obj 29 341 pack 0 0 0 0.9;
#X obj 180 314 hsl 128 15 0.9 0.1 0 0 empty empty Trigger_length -2
-8 0 10 -262144 -1 -1 0 1;
#X msg 27 373 send \$1 \$2 \$3 \$4;
#X obj 51 290 s8_pitch;
#X obj 27 408 s8_remote;
#X obj 138 76 hsl 128 15 250 2000 0 0 empty empty Tempo -2 -8 0 10
-262144 -1 -1 1814 1;
#X obj 15 32 t b b;
#X obj 25 133 t b b;
#X obj 137 98 t f f;
#X obj 218 184 expr 1000 / $f1;
#X text 99 29 default tempo;
#X text 317 183 trigger frequency;
#X obj 53 173 hradio 15 0 0 8 empty empty empty 0 -8 0 10 -262144 -1
-1 4;
#X obj 51 245 expr if($f1<4 \, $f1-4 \, $f1-3);
#X obj 75 131 loadbang;
#X msg 85 152 4;
#X obj 506 107 bng 15 250 50 0 empty empty empty 17 7 0 10 -262144
-1 -1;
#X obj 507 78 metro;
#X obj 609 72 hsl 128 15 250 2000 0 0 empty empty Tempo -2 -8 0 10
-262144 -1 -1 3714 1;
#X obj 505 152 t b b;
#X obj 636 98 t f f;
#X obj 534 180 hradio 15 0 0 8 empty empty empty 0 -8 0 10 -262144
-1 -1 3;
#X obj 556 138 loadbang;
#X obj 496 8 loadbang;
#X msg 699 32 500;
#X obj 499 42 t b b;
#X text 726 31 default tempo;
#X obj 537 105 tgl 15 0 empty empty empty 17 7 0 10 -262144 -1 -1 1
1;
#X obj 505 129 spigot;
#X msg 566 159 3;
#X text 528 200 <= 4 3 2 1|1 2 3 4 =>;
#X text 48 190 <= 4 3 2 1|1 2 3 4 =>;
#X connect 0 0 11 0;
#X connect 1 0 10 0;
#X connect 2 0 0 0;
#X connect 3 0 9 0;
#X connect 4 0 6 0;
#X connect 5 0 4 3;
#X connect 6 0 8 0;
#X connect 7 0 4 1;
#X connect 9 0 12 0;
#X connect 10 0 2 0;
#X connect 10 1 3 0;
#X connect 11 0 4 0;
#X connect 11 1 16 0;
#X connect 12 0 2 1;
#X connect 12 1 13 0;
#X connect 13 0 4 2;
#X connect 16 0 17 0;
#X connect 17 0 7 0;
#X connect 18 0 19 0;
#X connect 19 0 16 0;
#X connect 20 0 32 0;
#X connect 21 0 20 0;
#X connect 22 0 24 0;
#X connect 23 0 4 0;
#X connect 23 1 25 0;
#X connect 24 0 21 1;
#X connect 24 1 13 0;
#X connect 25 0 17 0;
#X connect 26 0 33 0;
#X connect 27 0 29 0;
#X connect 28 0 22 0;
#X connect 29 0 21 0;
#X connect 29 1 28 0;
#X connect 31 0 32 1;
#X connect 32 0 23 0;
#X connect 33 0 25 0;
