#N canvas 100 43 640 493 10;
#X obj 25 100 bng 15 250 50 0 empty empty empty 17 7 0 10 -262144 -1
-1;
#X obj 36 6 loadbang;
#X obj 26 71 metro;
#X msg 171 43 500;
#X obj 114 243 pack 0 0 0 0.9;
#X obj 199 204 hsl 128 15 0.9 0.1 0 0 empty empty Trigger_length -2
-8 0 10 -262144 -1 -1 0 1;
#X msg 110 332 send \$1 \$2 \$3 \$4;
#X text 75 44 default speed;
#X obj 126 83 s8_tempo;
#X obj 110 133 s8_pitch;
#X obj 181 134 s8_trigger;
#X obj 110 367 s8_remote;
#X connect 0 0 4 0;
#X connect 0 0 8 0;
#X connect 0 0 9 0;
#X connect 1 0 2 0;
#X connect 1 0 3 0;
#X connect 2 0 0 0;
#X connect 3 0 2 1;
#X connect 3 0 10 0;
#X connect 4 0 6 0;
#X connect 5 0 4 3;
#X connect 6 0 11 0;
#X connect 8 0 2 1;
#X connect 8 0 10 1;
#X connect 9 0 4 1;
#X connect 10 0 4 2;
