#N canvas 687 119 640 516 10;
#X obj 25 100 bng 15 250 50 0 empty empty empty 17 7 0 10 -262144 -1
-1;
#X obj 17 5 loadbang;
#X obj 26 71 metro;
#X msg 70 29 500;
#X obj 31 284 pack 0 0 0 0.9;
#X obj 122 250 hsl 128 15 0.9 0.1 0 0 empty empty Trigger_length -2
-8 0 10 -262144 -1 -1 0 1;
#X msg 27 373 send \$1 \$2 \$3 \$4;
#X obj 38 174 s8_pitch;
#X obj 27 408 s8_remote;
#X obj 138 76 hsl 128 15 250 2000 0 0 empty empty Tempo -2 -8 0 10
-262144 -1 -1 1814 1;
#X obj 15 32 t b b;
#X obj 25 133 t b b;
#X obj 137 98 t f f;
#X obj 123 170 expr 1000 / $f1;
#X text 99 29 default tempo;
#X text 222 169 trigger frequency;
#X connect 0 0 11 0;
#X connect 1 0 10 0;
#X connect 2 0 0 0;
#X connect 3 0 9 0;
#X connect 4 0 6 0;
#X connect 5 0 4 3;
#X connect 6 0 8 0;
#X connect 7 0 4 1;
#X connect 9 0 12 0;
#X connect 10 0 2 0;
#X connect 10 1 3 0;
#X connect 11 0 4 0;
#X connect 11 1 7 0;
#X connect 12 0 2 1;
#X connect 12 1 13 0;
#X connect 13 0 4 2;
