#N canvas 629 196 813 538 10;
#X obj 259 425 outlet;
#X obj 127 354 hradio 15 0 1 4 empty empty empty 0 -8 0 10 -262144
-1 -1 2;
#X obj 469 138 vsl 15 128 0.1 1 0 0 empty empty empty 0 -9 0 10 -262144
-1 -1 1270 1;
#X obj 440 138 vsl 15 128 0.1 1 0 0 empty empty empty 0 -9 0 10 -262144
-1 -1 4233 1;
#X obj 410 138 vsl 15 128 0.1 1 0 0 empty empty empty 0 -9 0 10 -262144
-1 -1 7338 1;
#X obj 381 138 vsl 15 128 0.1 1 0 0 empty empty empty 0 -9 0 10 -262144
-1 -1 1976 1;
#X obj 352 138 vsl 15 128 0.1 1 0 0 empty empty empty 0 -9 0 10 -262144
-1 -1 9596 1;
#X obj 322 138 vsl 15 128 0.1 1 0 0 empty empty empty 0 -9 0 10 -262144
-1 -1 6773 1;
#X obj 295 138 vsl 15 128 0 1 0 0 empty empty empty 0 -9 0 10 -262144
-1 -1 4445 1;
#X obj 499 276 bng 15 250 50 0 empty empty empty 17 7 0 10 -262144
-1 -1;
#X obj 380 277 bng 15 250 50 0 empty empty empty 17 7 0 10 -262144
-1 -1;
#X obj 296 277 bng 15 250 50 0 empty empty empty 17 7 0 10 -262144
-1 -1;
#X obj 353 277 bng 15 250 50 0 empty empty empty 17 7 0 10 -262144
-1 -1;
#X obj 322 277 bng 15 250 50 0 empty empty empty 17 7 0 10 -262144
-1 -1;
#X obj 412 277 bng 15 250 50 0 empty empty empty 17 7 0 10 -262144
-1 -1;
#X obj 440 276 bng 15 250 50 0 empty empty empty 17 7 0 10 -262144
-1 -1;
#X obj 498 138 vsl 15 128 0.1 1 0 0 empty empty empty 0 -9 0 10 -262144
-1 -1 7197 1;
#X obj 469 276 bng 15 250 50 0 empty empty empty 17 7 0 10 -262144
-1 -1;
#X obj 268 84 bng 15 250 50 0 empty empty empty 17 7 0 10 -262144 -1
-1;
#X obj 268 42 loadbang;
#X obj 95 390 loadbang;
#X obj 275 113 s8_random;
#X obj 291 323 s8_select;
#X obj 260 377 s8_scales;
#X obj 22 83 inlet;
#X text 62 319 line | major | minor | hungarian;
#X obj 48 131 pyext s8 counter 7;
#X connect 1 0 23 0;
#X connect 2 0 22 7;
#X connect 3 0 22 6;
#X connect 4 0 22 5;
#X connect 5 0 22 4;
#X connect 6 0 22 3;
#X connect 7 0 22 2;
#X connect 8 0 22 1;
#X connect 16 0 22 8;
#X connect 18 0 21 0;
#X connect 19 0 18 0;
#X connect 20 0 1 0;
#X connect 21 0 8 0;
#X connect 21 1 7 0;
#X connect 21 2 6 0;
#X connect 21 3 5 0;
#X connect 21 4 4 0;
#X connect 21 5 3 0;
#X connect 21 6 2 0;
#X connect 21 7 16 0;
#X connect 22 0 23 1;
#X connect 22 1 11 0;
#X connect 22 2 13 0;
#X connect 22 3 12 0;
#X connect 22 4 10 0;
#X connect 22 5 14 0;
#X connect 22 6 15 0;
#X connect 22 7 17 0;
#X connect 22 8 9 0;
#X connect 23 0 0 0;
#X connect 24 0 26 1;
#X connect 26 0 22 0;
