#N canvas 376 125 450 300 10;
#X obj 14 124 random 100;
#X obj 14 142 / 100;
#X obj 89 123 random 100;
#X obj 92 146 / 100;
#X obj 162 123 random 100;
#X obj 162 141 / 100;
#X obj 232 122 random 100;
#X obj 232 140 / 100;
#X obj 12 172 random 100;
#X obj 22 196 / 100;
#X obj 87 171 random 100;
#X obj 87 189 / 100;
#X obj 160 171 random 100;
#X obj 160 189 / 100;
#X obj 230 170 random 100;
#X obj 230 188 / 100;
#X obj 12 237 outlet;
#X obj 57 237 outlet;
#X obj 102 237 outlet;
#X obj 146 237 outlet;
#X obj 189 237 outlet;
#X obj 234 238 outlet;
#X obj 276 238 outlet;
#X obj 321 239 outlet;
#X obj 24 54 inlet;
#X connect 0 0 1 0;
#X connect 1 0 16 0;
#X connect 2 0 3 0;
#X connect 3 0 18 0;
#X connect 4 0 5 0;
#X connect 5 0 20 0;
#X connect 6 0 7 0;
#X connect 7 0 22 0;
#X connect 8 0 9 0;
#X connect 9 0 17 0;
#X connect 10 0 11 0;
#X connect 11 0 19 0;
#X connect 12 0 13 0;
#X connect 13 0 21 0;
#X connect 14 0 15 0;
#X connect 15 0 23 0;
#X connect 24 0 0 0;
#X connect 24 0 2 0;
#X connect 24 0 4 0;
#X connect 24 0 6 0;
#X connect 24 0 8 0;
#X connect 24 0 10 0;
#X connect 24 0 12 0;
#X connect 24 0 14 0;
