#N canvas 568 184 712 449 10;
#X obj 127 359 spigot;
#X obj 247 372 spigot;
#X msg 207 241 1;
#X obj 211 213 t b b;
#X msg 241 242 0;
#X obj 284 213 t b b;
#X msg 282 241 1;
#X msg 318 241 0;
#X obj 136 330 inlet;
#X obj 239 345 inlet;
#X obj 365 213 t b b;
#X msg 364 241 1;
#X msg 403 241 0;
#X obj 357 340 inlet;
#X obj 367 367 spigot;
#X obj 230 428 outlet;
#X obj 46 90 inlet;
#X text 36 67 radio button;
#X text 86 335 sig 1;
#X text 192 352 sig 2;
#X text 313 347 sig 3;
#X obj 453 212 t b b;
#X msg 452 240 1;
#X msg 491 240 0;
#X obj 445 339 inlet;
#X obj 455 366 spigot;
#X obj 546 212 t b b;
#X msg 545 240 1;
#X msg 584 240 0;
#X obj 538 339 inlet;
#X obj 548 366 spigot;
#X text 220 100 switch between 5 signals in one click;
#X obj 219 140 select 0 1 2 3 4;
#X obj 211 173 bng 15 250 50 0 empty empty empty 17 7 0 10 -262144
-1 -1;
#X obj 261 175 bng 15 250 50 0 empty empty empty 17 7 0 10 -262144
-1 -1;
#X obj 363 176 bng 15 250 50 0 empty empty empty 17 7 0 10 -262144
-1 -1;
#X obj 452 171 bng 15 250 50 0 empty empty empty 17 7 0 10 -262144
-1 -1;
#X obj 545 172 bng 15 250 50 0 empty empty empty 17 7 0 10 -262144
-1 -1;
#X connect 0 0 15 0;
#X connect 1 0 15 0;
#X connect 2 0 0 1;
#X connect 3 0 2 0;
#X connect 3 1 4 0;
#X connect 4 0 1 1;
#X connect 4 0 14 1;
#X connect 4 0 25 1;
#X connect 4 0 30 1;
#X connect 5 0 6 0;
#X connect 5 1 7 0;
#X connect 6 0 1 1;
#X connect 7 0 0 1;
#X connect 7 0 14 1;
#X connect 7 0 25 1;
#X connect 7 0 30 1;
#X connect 8 0 0 0;
#X connect 9 0 1 0;
#X connect 10 0 11 0;
#X connect 10 1 12 0;
#X connect 11 0 14 1;
#X connect 12 0 1 1;
#X connect 12 0 0 1;
#X connect 12 0 25 1;
#X connect 12 0 30 1;
#X connect 13 0 14 0;
#X connect 14 0 15 0;
#X connect 16 0 32 0;
#X connect 21 0 22 0;
#X connect 21 1 23 0;
#X connect 22 0 25 1;
#X connect 23 0 0 1;
#X connect 23 0 1 1;
#X connect 23 0 14 1;
#X connect 23 0 30 1;
#X connect 24 0 25 0;
#X connect 25 0 15 0;
#X connect 26 0 27 0;
#X connect 26 1 28 0;
#X connect 27 0 30 1;
#X connect 28 0 25 1;
#X connect 28 0 14 1;
#X connect 28 0 1 1;
#X connect 28 0 0 1;
#X connect 29 0 30 0;
#X connect 30 0 15 0;
#X connect 32 0 33 0;
#X connect 32 1 34 0;
#X connect 32 2 35 0;
#X connect 32 3 36 0;
#X connect 32 4 37 0;
#X connect 33 0 3 0;
#X connect 34 0 5 0;
#X connect 35 0 10 0;
#X connect 36 0 21 0;
#X connect 37 0 26 0;
