#N canvas 653 240 350 300 10;
#X obj 138 191 outlet;
#X obj 99 25 inlet;
#X obj 158 26 inlet;
#X obj 125 162 s8_sig-switch;
#X obj 167 128 s8_major;
#X obj 229 132 s8_minor;
#X connect 1 0 3 0;
#X connect 2 0 3 1;
#X connect 2 0 4 0;
#X connect 2 0 5 0;
#X connect 3 0 0 0;
#X connect 4 0 3 2;
#X connect 5 0 3 3;
