#N canvas 221 145 350 323 10;
#X obj 119 206 outlet;
#X obj 99 25 inlet;
#X obj 158 26 inlet;
#X obj 123 180 s8_sig-switch;
#X obj 168 60 t f f f f;
#X obj 256 128 s8_hungarian;
#X obj 193 129 s8_minor;
#X obj 135 129 s8_major;
#X connect 1 0 3 0;
#X connect 2 0 4 0;
#X connect 3 0 0 0;
#X connect 4 0 3 1;
#X connect 4 1 7 0;
#X connect 4 2 6 0;
#X connect 4 3 5 0;
#X connect 5 0 3 4;
#X connect 6 0 3 3;
#X connect 7 0 3 2;
