#N canvas 638 81 450 494 10;
#X obj 19 51 inlet;
#X obj 77 52 inlet;
#X obj 119 51 inlet;
#X obj 159 51 inlet;
#X obj 199 51 inlet;
#X obj 239 51 inlet;
#X obj 281 50 inlet;
#X obj 321 50 inlet;
#X obj 360 50 inlet;
#X obj 4 114 select 0 1 2 3 4 5 6 7;
#X obj 384 216 f;
#X obj 341 217 f;
#X obj 300 217 f;
#X obj 257 216 f;
#X obj 212 217 f;
#X obj 168 216 f;
#X obj 127 218 f;
#X obj 84 217 f;
#X text 4 97 last out should be empty;
#X msg 4 370 \$1;
#X obj 4 403 outlet;
#X obj 71 288 outlet;
#X obj 116 288 outlet;
#X obj 161 288 outlet;
#X obj 206 288 outlet;
#X obj 251 288 outlet;
#X obj 296 288 outlet;
#X obj 341 288 outlet;
#X obj 386 288 outlet;
#X obj 84 235 t f f;
#X obj 128 238 t f f;
#X obj 168 237 t f f;
#X obj 213 239 t f f;
#X obj 258 240 t f f;
#X obj 300 241 t f f;
#X obj 342 242 t f f;
#X obj 385 244 t f f;
#X connect 0 0 9 0;
#X connect 1 0 17 1;
#X connect 2 0 16 1;
#X connect 3 0 15 1;
#X connect 4 0 14 1;
#X connect 5 0 13 1;
#X connect 6 0 12 1;
#X connect 7 0 11 1;
#X connect 8 0 10 1;
#X connect 9 0 17 0;
#X connect 9 1 16 0;
#X connect 9 2 15 0;
#X connect 9 3 14 0;
#X connect 9 4 13 0;
#X connect 9 5 12 0;
#X connect 9 6 11 0;
#X connect 9 7 10 0;
#X connect 10 0 36 0;
#X connect 11 0 35 0;
#X connect 12 0 34 0;
#X connect 13 0 33 0;
#X connect 14 0 32 0;
#X connect 15 0 31 0;
#X connect 16 0 30 0;
#X connect 17 0 29 0;
#X connect 19 0 20 0;
#X connect 29 0 19 0;
#X connect 29 1 21 0;
#X connect 30 0 19 0;
#X connect 30 1 22 0;
#X connect 31 0 19 0;
#X connect 31 1 23 0;
#X connect 32 0 19 0;
#X connect 32 1 24 0;
#X connect 33 0 19 0;
#X connect 33 1 25 0;
#X connect 34 0 19 0;
#X connect 34 1 26 0;
#X connect 35 0 19 0;
#X connect 35 1 27 0;
#X connect 36 0 19 0;
#X connect 36 1 28 0;
