#N canvas 494 149 712 449 10;
#X obj 127 359 spigot;
#X obj 247 372 spigot;
#X msg 207 241 1;
#X obj 211 213 t b b;
#X msg 241 242 0;
#X obj 284 213 t b b;
#X msg 282 241 1;
#X msg 318 241 0;
#X obj 136 330 inlet;
#X obj 239 345 inlet;
#X obj 219 183 select 0 1 2;
#X obj 361 210 t b b;
#X msg 364 241 1;
#X msg 403 241 0;
#X obj 357 340 inlet;
#X obj 367 367 spigot;
#X obj 230 428 outlet;
#X text 221 152 switch between 3 signals in one click;
#X obj 46 90 inlet;
#X text 36 67 radio button;
#X text 86 335 sig 1;
#X text 192 352 sig 2;
#X text 313 347 sig 3;
#X connect 0 0 16 0;
#X connect 1 0 16 0;
#X connect 2 0 0 1;
#X connect 3 0 2 0;
#X connect 3 1 4 0;
#X connect 4 0 1 1;
#X connect 4 0 15 1;
#X connect 5 0 6 0;
#X connect 5 1 7 0;
#X connect 6 0 1 1;
#X connect 7 0 0 1;
#X connect 7 0 15 1;
#X connect 8 0 0 0;
#X connect 9 0 1 0;
#X connect 10 0 3 0;
#X connect 10 1 5 0;
#X connect 10 2 11 0;
#X connect 11 0 12 0;
#X connect 11 1 13 0;
#X connect 12 0 15 1;
#X connect 13 0 1 1;
#X connect 13 0 0 1;
#X connect 14 0 15 0;
#X connect 15 0 16 0;
#X connect 18 0 10 0;
