#N canvas 785 274 450 300 10;
#X obj 104 16 inlet;
#X obj 27 115 /;
#X msg 27 76 1000;
#X obj 214 95 bng 15 250 50 0 empty empty empty 17 7 0 10 -262144 -1
-1;
#X obj 26 38 loadbang;
#X obj 262 13 inlet;
#X text 139 16 speed;
#X text 309 13 default speed;
#X obj 27 148 outlet;
#X text 64 77 ms;
#X connect 0 0 1 1;
#X connect 0 0 3 0;
#X connect 1 0 8 0;
#X connect 2 0 1 0;
#X connect 3 0 1 0;
#X connect 4 0 2 0;
#X connect 5 0 1 1;
